PathFileType	4	(X/Y/Z)	F:\shared\Remotetake0125-Body25.trc
DataRate	CameraRate	NumFrames	NumMarkers	Units	OrigDataRate	OrigDataStartFrame	OrigNumFrames	useTimeStamp
60		60		5		79		mm		60		225		1799		1																					
Frame#	Time	Timestamp	HeadTop			LHeadFront			LHeadBack			RHeadFront			RHeadBack			C7			T10			CLAV			STRN			LShoulderFront			LShoulderBack			LUArmHigh			LElbow			LElbowIn			LForearm			LWristIn			LWristOut			LHandIn			LHandOut			RShoulderFront			RShoulderBack			RUArmHigh			RElbow			RElbowIn			RForearm			RWristIn			RWristOut			RHandIn			RHandOut			WaistLFront			WaistLSide			WaistLBack			WaistRFront			WaistRSide			WaistRBack			LThigh			LKnee			LKneeIn			LShin			LAnkleOut			LHeel			LMT5			LMT1			LToe			RThigh			RKnee			RKneeIn			RShin			RAnkleOut			RHeel			RMT5			RMT1			RToe			C7			C7			STRN			STRN			LUArmHigh			LForearm			RUArmHigh			RForearm			WaistLFront			WaistLFront			WaistLSide			WaistLSide			WaistLBack			WaistLBack			WaistRFront			WaistRFront			WaistRSide			WaistRSide			WaistRBack			WaistRBack			LThigh			LShin			RThigh			RShin			LShoulderFront			RShoulderFront			
			X1	Y1	Z1	X2	Y2	Z2	X3	Y3	Z3	X4	Y4	Z4	X5	Y5	Z5	X6	Y6	Z6	X7	Y7	Z7	X8	Y8	Z8	X9	Y9	Z9	X10	Y10	Z10	X11	Y11	Z11	X12	Y12	Z12	X13	Y13	Z13	X14	Y14	Z14	X15	Y15	Z15	X16	Y16	Z16	X17	Y17	Z17	X18	Y18	Z18	X19	Y19	Z19	X20	Y20	Z20	X21	Y21	Z21	X22	Y22	Z22	X23	Y23	Z23	X24	Y24	Z24	X25	Y25	Z25	X26	Y26	Z26	X27	Y27	Z27	X28	Y28	Z28	X29	Y29	Z29	X30	Y30	Z30	X31	Y31	Z31	X32	Y32	Z32	X33	Y33	Z33	X34	Y34	Z34	X35	Y35	Z35	X36	Y36	Z36	X37	Y37	Z37	X38	Y38	Z38	X39	Y39	Z39	X40	Y40	Z40	X41	Y41	Z41	X42	Y42	Z42	X43	Y43	Z43	X44	Y44	Z44	X45	Y45	Z45	X46	Y46	Z46	X47	Y47	Z47	X48	Y48	Z48	X49	Y49	Z49	X50	Y50	Z50	X51	Y51	Z51	X52	Y52	Z52	X53	Y53	Z53	X54	Y54	Z54	X55	Y55	Z55	X56	Y56	Z56	X57	Y57	Z57	X58	Y58	Z58	X59	Y59	Z59	X60	Y60	Z60	X61	Y61	Z61	X62	Y62	Z62	X63	Y63	Z63	X64	Y64	Z64	X65	Y65	Z65	X66	Y66	Z66	X67	Y67	Z67	X68	Y68	Z68	X69	Y69	Z69	X70	Y70	Z70	X71	Y71	Z71	X72	Y72	Z72	X73	Y73	Z73	X74	Y74	Z74	X75	Y75	Z75	X76	Y76	Z76	X77	Y77	Z77	X78	Y78	Z78	X79	Y79	Z79	

225	3.733	1702448215339	470.043274	-460.768402	1700.297729	357.092834	-483.398743	1635.859253	415.788147	-588.476013	1587.472412	533.044861	-467.026062	1640.552002	467.528900	-584.891418	1589.571289	478.462372	-581.095032	1381.022095	487.311890	-579.114807	1089.105469	466.647736	-348.714417	1284.092285	485.968262	-288.522461	1095.751953	347.013245	-385.053680	1345.941895	267.187592	-517.198303	1346.760254	211.011475	-379.793732	1273.284546	206.543594	-258.003387	1236.085205	272.965515	-247.091660	1141.301025																575.427612	-400.566406	1365.564453	636.644592	-535.094727	1336.566895	685.750244	-344.231201	1262.691040																						339.686279	-333.197815	929.372620	289.066071	-439.527557	929.251831	361.819061	-559.946106	941.440247	596.066650	-347.596619	929.766296				546.821228	-559.960693	938.535461	283.475189	-410.955078	613.854126																									620.424683	-366.914185	653.507996	631.550537	-490.864655	452.855957				625.433899	-484.177490	206.724640	605.379456	-515.275757	64.385521	540.192505	-555.776794	80.832703	667.852356	-411.470245	21.595558	547.162109	-375.910217	10.928070	617.743652	-365.710693	44.658955																																																																															
226	3.750	1702448215357	469.940460	-460.167419	1700.297363	356.994537	-482.737579	1635.901245	415.724213	-587.933472	1587.617676	533.011353	-466.711670	1640.705566	467.332062	-584.469788	1589.793457	478.486267	-580.841675	1381.271851	487.338593	-579.332214	1089.323364	466.721527	-348.687286	1283.752319	486.174835	-288.674683	1095.637695	347.037537	-384.852631	1345.719604	267.121704	-517.037354	1346.842163	211.178101	-379.652222	1272.573242	206.973022	-258.221527	1234.874634	273.565704	-247.407135	1140.235962																575.427124	-400.467316	1365.507935	636.637207	-535.041626	1336.623901	685.498840	-344.344421	1262.217285																						339.733612	-333.505096	929.353455	289.016785	-439.758179	929.240051	361.628418	-559.905579	941.624878	596.219910	-348.140259	929.829895				546.634460	-560.269836	938.951843	283.672455	-411.229492	613.737549																									621.052246	-367.074036	653.901733	631.709961	-491.058716	453.085419				625.145813	-483.872620	206.927536	605.418457	-515.077759	64.463264	540.223206	-555.332764	80.991768	667.749695	-411.253906	21.938858	547.238708	-376.037842	10.903355	617.759521	-365.389099	44.973015																																																																															
227	3.766	1702448215381	469.825470	-459.520844	1700.325806	356.904877	-482.060577	1635.902466	415.517181	-587.519287	1587.975464	532.920837	-466.170319	1640.815918	467.104645	-583.968750	1589.974243	478.311554	-580.705261	1381.509155	487.383972	-579.591370	1089.547974	466.784760	-348.724854	1283.629395	486.299225	-288.831543	1095.305176	347.003601	-384.627777	1345.464478	267.060028	-516.774719	1346.776001	211.204453	-379.650116	1271.970947	207.300674	-258.263306	1233.816284	273.626221	-248.262665	1138.883667																575.381653	-400.508331	1365.421143	636.539307	-535.039612	1336.758301	685.223938	-344.369598	1261.863647																						339.896057	-333.780823	929.281738	288.893005	-439.992859	929.277893	361.665802	-560.212952	941.546021	596.377136	-348.713043	929.625122				546.641357	-560.733643	938.949768	283.743347	-411.499634	613.730957																									621.044128	-367.641144	653.903748	631.878601	-491.474091	453.100677				625.128601	-483.998566	206.972702	605.446899	-515.045532	64.441910	540.223999	-555.329346	80.961571	667.806274	-411.216461	21.863216	547.447083	-375.738922	11.243497	617.753479	-365.314087	44.965302																																																																															
228	3.783	1702448215389	469.707855	-458.834625	1700.287598	356.463837	-481.181183	1636.176758	415.318787	-586.991211	1588.157349	532.786072	-465.806305	1640.770264	466.857300	-583.622803	1590.269897	478.207153	-580.556519	1381.752808	487.421234	-579.813416	1089.677002	466.845978	-348.701660	1283.239380	486.480957	-289.307068	1094.936157	347.085632	-384.468964	1345.152832	266.968170	-516.434082	1346.675659	211.485748	-379.614014	1271.365479	207.801636	-258.292053	1232.590576	275.110931	-249.038315	1139.562378																575.318542	-400.391937	1365.364380	636.459473	-535.013550	1336.972900	684.797974	-344.475189	1261.647461																						340.040070	-334.185120	929.184082	288.938324	-440.361053	929.244873	361.584930	-560.572388	941.714294	596.435120	-349.443237	929.502808				546.608093	-561.372009	938.618958	283.685181	-411.723145	613.872620																									621.183472	-368.491486	653.713928	631.763855	-492.322723	452.778381				625.111694	-484.646484	206.437881	605.397888	-515.333923	64.371758	540.205811	-555.788757	80.853249	667.740540	-411.470551	21.444086	547.217102	-375.976166	10.860687	617.825806	-365.743317	44.712543																																																																															
229	3.800	1702448215420	469.565796	-458.133972	1700.311890	356.571045	-480.749084	1636.016235	414.960114	-586.373535	1588.442017	532.562317	-465.154175	1640.736206	466.601349	-583.134338	1590.504272	478.050385	-580.426208	1381.941528	487.367340	-580.313049	1089.988159	466.858551	-348.745361	1282.987671	486.744843	-289.716125	1094.204590	347.060516	-384.371338	1344.944702	266.935486	-516.242310	1346.605469	211.662033	-379.486694	1270.699219	208.090759	-258.212524	1231.611206	275.112396	-249.455368	1137.916016																575.164917	-400.317566	1365.281738	636.323364	-535.054749	1337.150757	683.970032	-344.539764	1261.640259																						340.189972	-334.528290	929.037292	288.914795	-440.638184	929.182373	361.429474	-561.418152	941.780396	596.585876	-350.076019	929.214233				546.574158	-561.856140	938.668762	283.837494	-412.004944	613.725708																									621.203186	-368.996613	653.776611	631.839539	-492.851135	452.848419				625.235840	-484.631012	206.396072	605.426819	-515.566406	64.239510	540.235962	-555.798523	80.753036	667.799744	-411.546753	21.553154	546.945190	-376.148743	10.523883	617.852966	-365.711151	44.711033																																																																															
